<?xml version="1.0" encoding="UTF-8" standalone="no"?>
<svg
   xmlns:dc="http://purl.org/dc/elements/1.1/"
   xmlns:cc="http://creativecommons.org/ns#"
   xmlns:rdf="http://www.w3.org/1999/02/22-rdf-syntax-ns#"
   xmlns:svg="http://www.w3.org/2000/svg"
   xmlns="http://www.w3.org/2000/svg"
   xmlns:sodipodi="http://sodipodi.sourceforge.net/DTD/sodipodi-0.dtd"
   xmlns:inkscape="http://www.inkscape.org/namespaces/inkscape"
   version="1.1"
   id="Capa_1"
   x="0px"
   y="0px"
   viewBox="0 0 185.3435 103.405"
   xml:space="preserve"
   sodipodi:docname="chevron_down.svg"
   width="185.34351"
   height="103.405"
   inkscape:version="1.0.1 (c497b03c, 2020-09-10)"><metadata
   id="metadata874"><rdf:RDF><cc:Work
       rdf:about=""><dc:format>image/svg+xml</dc:format><dc:type
         rdf:resource="http://purl.org/dc/dcmitype/StillImage" /><dc:title></dc:title></cc:Work></rdf:RDF></metadata><defs
   id="defs872" /><sodipodi:namedview
   pagecolor="#ffffff"
   bordercolor="#666666"
   borderopacity="1"
   objecttolerance="10"
   gridtolerance="10"
   guidetolerance="10"
   inkscape:pageopacity="0"
   inkscape:pageshadow="2"
   inkscape:window-width="1680"
   inkscape:window-height="1005"
   id="namedview870"
   showgrid="false"
   inkscape:zoom="4.159855"
   inkscape:cx="92.67225"
   inkscape:cy="51.70275"
   inkscape:window-x="0"
   inkscape:window-y="23"
   inkscape:window-maximized="0"
   inkscape:current-layer="Capa_1" />
<g
   id="g837"
   transform="rotate(90,113.15575,72.18725)">
	<g
   id="g835">
		<path
   style="fill:#010002"
   d="m 51.707,185.343 c -2.741,0 -5.493,-1.044 -7.593,-3.149 -4.194,-4.194 -4.194,-10.981 0,-15.175 L 118.466,92.672 44.114,18.32 c -4.194,-4.194 -4.194,-10.987 0,-15.175 4.194,-4.194 10.987,-4.194 15.18,0 l 81.934,81.934 c 4.194,4.194 4.194,10.987 0,15.175 l -81.934,81.939 c -2.093,2.1 -4.84,3.15 -7.587,3.15 z"
   id="path833" />
	</g>
</g>
<g
   id="g839"
   transform="rotate(90,20.48475,-20.484)">
</g>
<g
   id="g841"
   transform="rotate(90,20.48475,-20.484)">
</g>
<g
   id="g843"
   transform="rotate(90,20.48475,-20.484)">
</g>
<g
   id="g845"
   transform="rotate(90,20.48475,-20.484)">
</g>
<g
   id="g847"
   transform="rotate(90,20.48475,-20.484)">
</g>
<g
   id="g849"
   transform="rotate(90,20.48475,-20.484)">
</g>
<g
   id="g851"
   transform="rotate(90,20.48475,-20.484)">
</g>
<g
   id="g853"
   transform="rotate(90,20.48475,-20.484)">
</g>
<g
   id="g855"
   transform="rotate(90,20.48475,-20.484)">
</g>
<g
   id="g857"
   transform="rotate(90,20.48475,-20.484)">
</g>
<g
   id="g859"
   transform="rotate(90,20.48475,-20.484)">
</g>
<g
   id="g861"
   transform="rotate(90,20.48475,-20.484)">
</g>
<g
   id="g863"
   transform="rotate(90,20.48475,-20.484)">
</g>
<g
   id="g865"
   transform="rotate(90,20.48475,-20.484)">
</g>
<g
   id="g867"
   transform="rotate(90,20.48475,-20.484)">
</g>
</svg>
