<?xml version="1.0" encoding="UTF-8" standalone="no"?>
<svg
   xmlns:dc="http://purl.org/dc/elements/1.1/"
   xmlns:cc="http://creativecommons.org/ns#"
   xmlns:rdf="http://www.w3.org/1999/02/22-rdf-syntax-ns#"
   xmlns:svg="http://www.w3.org/2000/svg"
   xmlns="http://www.w3.org/2000/svg"
   xmlns:sodipodi="http://sodipodi.sourceforge.net/DTD/sodipodi-0.dtd"
   xmlns:inkscape="http://www.inkscape.org/namespaces/inkscape"
   height="20.999619pt"
   viewBox="0 0 21.017191 20.999619"
   width="21pt"
   version="1.1"
   id="svg1554"
   sodipodi:docname="close.svg"
   inkscape:version="1.0.2 (e86c8708, 2021-01-15)">
  <metadata
     id="metadata1560">
    <rdf:RDF>
      <cc:Work
         rdf:about="">
        <dc:format>image/svg+xml</dc:format>
        <dc:type
           rdf:resource="http://purl.org/dc/dcmitype/StillImage" />
      </cc:Work>
    </rdf:RDF>
  </metadata>
  <defs
     id="defs1558" />
  <sodipodi:namedview
     pagecolor="#ffffff"
     bordercolor="#666666"
     borderopacity="1"
     objecttolerance="10"
     gridtolerance="10"
     guidetolerance="10"
     inkscape:pageopacity="0"
     inkscape:pageshadow="2"
     inkscape:window-width="1920"
     inkscape:window-height="1027"
     id="namedview1556"
     showgrid="false"
     inkscape:zoom="1.3337903"
     inkscape:cx="137.84901"
     inkscape:cy="22.251605"
     inkscape:window-x="0"
     inkscape:window-y="25"
     inkscape:window-maximized="0"
     inkscape:current-layer="svg1554" />
  <path
     d="m 12.434086,10.373835 8.183672,-8.18388 c 0.532578,-0.53233 0.532578,-1.39305 0,-1.92538 -0.532332,-0.53232 -1.393033,-0.53232 -1.925364,0 L 10.50847,8.448515 2.3247983,0.264575 c -0.532579,-0.53232 -1.39303305,-0.53232 -1.92536405,0 -0.532579,0.53233 -0.532579,1.39305 0,1.92538 l 8.18367205,8.18388 -8.18367205,8.18394 c -0.532579,0.53232 -0.532579,1.39304 0,1.92537 0.2653,0.26553 0.61411505,0.399 0.96268205,0.399 0.348553,0 0.697144,-0.13347 0.962682,-0.399 l 8.1836717,-8.18393 8.183924,8.18393 c 0.265533,0.26553 0.61411,0.399 0.962682,0.399 0.348553,0 0.697139,-0.13347 0.962682,-0.399 0.532578,-0.53233 0.532578,-1.39305 0,-1.92537 z m 0,0"
     id="path1552"
     style="stroke-width:0.0638297" />
</svg>
