<?xml version="1.0" encoding="UTF-8" standalone="no"?>
<svg
   xmlns:dc="http://purl.org/dc/elements/1.1/"
   xmlns:cc="http://creativecommons.org/ns#"
   xmlns:rdf="http://www.w3.org/1999/02/22-rdf-syntax-ns#"
   xmlns:svg="http://www.w3.org/2000/svg"
   xmlns="http://www.w3.org/2000/svg"
   xmlns:sodipodi="http://sodipodi.sourceforge.net/DTD/sodipodi-0.dtd"
   xmlns:inkscape="http://www.inkscape.org/namespaces/inkscape"
   width="174.61084"
   height="50.331318"
   viewBox="0 0 174.61084 50.331318"
   version="1.1"
   id="svg899"
   sodipodi:docname="iron-earth-logo.svg"
   inkscape:version="1.0.2 (e86c8708, 2021-01-15)">
  <metadata
     id="metadata903">
    <rdf:RDF>
      <cc:Work
         rdf:about="">
        <dc:format>image/svg+xml</dc:format>
        <dc:type
           rdf:resource="http://purl.org/dc/dcmitype/StillImage" />
      </cc:Work>
    </rdf:RDF>
  </metadata>
  <sodipodi:namedview
     pagecolor="#ffffff"
     bordercolor="#666666"
     borderopacity="1"
     objecttolerance="10"
     gridtolerance="10"
     guidetolerance="10"
     inkscape:pageopacity="0"
     inkscape:pageshadow="2"
     inkscape:window-width="1680"
     inkscape:window-height="1005"
     id="namedview901"
     showgrid="false"
     inkscape:zoom="4.2156114"
     inkscape:cx="140.86332"
     inkscape:cy="44.259518"
     inkscape:window-x="0"
     inkscape:window-y="25"
     inkscape:window-maximized="0"
     inkscape:current-layer="g1052"
     inkscape:document-rotation="0" />
  <defs
     id="defs889">
    <style
       id="style887">
      .cls-1 {
        fill: #4cb4c0;
        stroke: #4cb4c0;
        stroke-width: 5px;
      }

      .cls-2 {
        font-size: 62.5px;
        fill: #404041;
        font-family: Oswald;
      }
    </style>
  </defs>
  <g
     id="g976"
     transform="translate(-105.08939,-46.642517)">
    <g
       id="g1052"
       transform="matrix(0.21827362,0,0,0.21827362,93.090941,39.410673)">
      <g
         id="g1077">
        <path
           style="fill:#000000"
           d="m 154.00056,260.82368 c -2.07986,-1.05224 -2.62365,-2.25888 -3.23937,-7.18802 -1.04727,-8.38397 -2.31633,-11.63826 -6.39817,-16.40698 -9.17797,-10.72239 -25.2375,-11.90203 -36.04883,-2.64794 -5.85606,5.01257 -8.565479,4.73971 -15.651859,-1.57628 C 85.19321,226.34734 78,217.46939 78,214.90803 c 0,-1.11448 1.409198,-3.63131 3.131551,-5.59296 7.072828,-8.05551 8.996343,-19.69229 4.74874,-28.72867 -3.799582,-8.08327 -13.198096,-14.46872 -21.29597,-14.46872 -3.377611,0 -8.147174,-2.41843 -8.96314,-4.5448 -1.169364,-3.04732 -0.648281,-26.84369 0.643561,-29.38957 1.02765,-2.02524 2.453619,-2.63944 8.484465,-3.65452 16.160826,-2.72009 25.421192,-13.63684 23.928282,-28.20827 -0.559475,-5.460722 -3.847235,-12.236511 -7.573846,-15.609049 -3.809261,-3.447333 -2.810424,-7.47195 3.617167,-14.574669 7.393273,-8.169831 14.834353,-14.019126 17.83419,-14.019126 1.30648,0 3.90886,1.34639 5.78308,2.991978 10.28495,9.030307 24.32966,9.45381 33.90817,1.022466 5.47836,-4.822242 7.90561,-9.61185 8.86266,-17.488343 1.09144,-8.982479 2.14102,-9.529435 18.25187,-9.511359 16.88736,0.01895 17.91151,0.487725 18.81186,8.610654 0.83633,7.545326 2.64012,11.952822 6.85758,16.756246 8.99829,10.248481 25.06584,11.219726 35.65559,2.155295 5.65026,-4.836407 8.30972,-4.638031 15.05288,1.122835 C 252.77455,67.788369 261,77.682504 261,80.134796 c 0,1.052308 -1.28944,3.391446 -2.86542,5.198084 -5.08815,5.83284 -7.47595,11.685429 -7.46003,18.2848 0.0329,13.63598 9.15832,23.49749 23.63739,25.54409 9.09451,1.2855 9.18806,1.4797 9.18806,19.07453 0,13.73812 -0.16851,15.16724 -1.94113,16.46274 -1.06762,0.78025 -3.34845,1.41864 -5.0685,1.41864 -14.15938,0 -26.47083,12.09247 -26.47083,26 0,6.31974 3.18584,14.09097 7.34811,17.92431 5.41929,4.99101 1.98964,11.70881 -12.065,23.63221 -7.43137,6.30448 -9.8006,6.7012 -14.64073,2.4515 -5.19756,-4.56351 -11.35571,-6.96103 -17.94404,-6.98606 -7.10145,-0.027 -12.03607,1.93436 -17.0503,6.77687 -5.08356,4.90946 -6.69153,8.20994 -8.11224,16.65102 -0.98209,5.83509 -1.60615,7.26304 -3.62097,8.28541 -3.34151,1.69556 -26.5694,1.67286 -29.93381,-0.0293 z M 191.5,213.71075 c 28.72649,-9.78477 48.416,-36.95209 48.48264,-66.89566 0.0702,-31.55625 -22.0913,-60.17104 -52.98264,-68.410785 -8.7074,-2.322552 -26.15356,-2.27152 -35,0.10238 -24.5036,6.575423 -43.76916,25.829875 -50.64018,50.610995 -2.862388,10.32355 -2.414388,28.19688 0.96502,38.5 3.74312,11.41202 8.99554,19.80954 18.19689,29.093 6.55713,6.61565 9.75227,8.94876 17.5,12.77864 12.44891,6.15376 19.52917,7.66785 33.97827,7.26612 9.32748,-0.25934 13.01132,-0.83452 19.5,-3.04469 z m 118.9179,15.49026 C 310.18806,228.97185 310,212.20935 310,191.95101 v -36.83333 h 15 c 8.25,0 15.28929,0 15.64286,0 0.35357,0 0.64401,2.1375 0.64542,4.75 l 0.003,4.75 -8.17996,0.291 -8.17995,0.291 0.28453,10.209 0.28453,10.209 5.75,0.2999 5.75,0.29991 v 4.95009 4.9501 h -6.03174 -6.03173 l 0.28173,11.66256 0.28174,11.66256 7.98894,-0.23483 c 4.39391,-0.12916 8.17565,-0.42155 8.40386,-0.64976 0.22821,-0.2282 3.26026,-13.58318 6.73789,-29.67772 3.47763,-16.09455 6.55731,-30.23687 6.84374,-31.42738 0.45669,-1.89815 1.32285,-2.20585 7.03742,-2.5 5.13066,-0.26409 6.61186,-0.0164 6.96435,1.16457 0.71298,2.38873 15.52375,71.69232 15.52429,72.64234 2.7e-4,0.47171 -3.24018,0.78895 -7.20101,0.70497 l -7.20149,-0.15269 -1.549,-7.84731 -1.54942,-7.84731 h -4.97164 -4.97165 l -1.53024,7.86397 -1.53024,7.86397 -21.83022,0.13603 c -12.00661,0.0748 -22.01826,-0.0515 -22.24811,-0.28064 z m 54.6287,-37.50029 c -0.85063,-6.82933 -1.82677,-12.697 -2.1692,-13.03927 -0.59477,-0.59448 -2.08935,7.89981 -3.49633,19.87097 l -0.65643,5.58526 h 3.93428 3.93429 z m 22.37007,37.50029 C 387.1875,228.97185 387,212.20935 387,191.95101 v -36.83333 h 12.35078 c 21.69672,0 27.79191,4.44609 27.75873,20.24841 -0.0169,8.04225 -2.04164,12.95385 -6.62364,16.0674 l -3.22829,2.19368 5.85006,17.99526 c 3.21753,9.89739 5.85977,17.99525 5.87165,17.99525 0.0119,0 -3.45569,-0.0708 -7.70569,-0.15731 l -7.72727,-0.15731 -3.59707,-14.34269 c -1.97839,-7.88848 -3.90988,-15.58019 -4.29222,-17.09269 -0.38233,-1.5125 -1.36157,-2.75 -2.17609,-2.75 -1.2507,0 -1.48095,2.68196 -1.48095,17.25 v 17.25 h -7.08333 c -3.89584,0 -7.27084,-0.1875 -7.5,-0.41667 z m 22.51125,-45.01125 c 2.97829,-2.97829 3.67404,-10.1748 1.42817,-14.7724 -1.59547,-3.26615 -2.38264,-3.84326 -5.60609,-4.11005 L 402,164.99695 v 10.56036 10.56037 h 3 c 1.65,0 3.86756,-0.86756 4.92792,-1.92792 z m 27.83511,13.42792 -0.26303,-32 -5.25,-0.30226 -5.25,-0.30226 v -4.94774 -4.94774 h 18.5 18.5 v 5 5 h -5.48615 -5.48614 l -0.26386,32.09741 -0.26385,32.0974 -7.23697,0.1526 -7.23696,0.15259 z m 28.23415,-5.5 -0.002,-37.5 7.50233,0.329 7.50233,0.32901 v 14.92099 14.921 h 5.5 5.5 v -15 -15 h 7.51217 7.51217 l -0.26217,37.09734 -0.26217,37.09734 -7.25049,0.15266 -7.25049,0.15266 4.9e-4,-16.75 6.5e-4,-16.75 h -5.47582 -5.47582 l -0.27418,16.59802 -0.27418,16.59801 -7.25049,0.15199 -7.25049,0.15198 -0.002,-37.5 z m -78.2381,-52.42293 c -6.00435,-2.14298 -8.37805,-4.16382 -10.89478,-9.27523 -2.28244,-4.63559 -2.3643,-5.6155 -2.3643,-28.30184 0,-21.976492 0.14014,-23.803236 2.16162,-28.17733 2.89809,-6.270888 8.31837,-9.83079 16.02174,-10.52266 8.09061,-0.72665 14.0449,1.09735 18.35399,5.622452 5.39882,5.669446 6.05166,9.304668 6.04595,33.665668 -0.005,20.65745 -0.1061,21.78191 -2.41584,26.82705 -2.66328,5.81737 -6.12018,8.7908 -12.16746,10.46576 -5.22731,1.44784 -10.11514,1.34708 -14.74092,-0.30387 z m 11.7201,-11.96535 c 3.34628,-3.34628 3.72234,-6.60513 3.34947,-29.026077 L 402.5,78.941009 399.69424,76.529342 c -3.53828,-3.041288 -5.16399,-3.032828 -8.23969,0.04288 L 389,79.026767 v 23.090913 23.09091 l 2.45455,2.45454 c 3.07983,3.07983 4.99526,3.09565 8.02463,0.0663 z M 310.23783,101.86768 310.5,64.617676 l 7.25,-0.29381 7.25,-0.293809 v 37.543813 37.54381 h -7.51217 -7.51217 z m 21,0 L 331.5,64.617676 343,64.723737 c 22.11447,0.203954 28,4.49233 28,20.401658 0,8.338905 -2.43811,14.133238 -6.92274,16.452325 l -2.90312,1.50126 3.38009,10.76935 c 1.85905,5.92314 4.49306,14.03185 5.85336,18.01935 l 2.47326,7.25 h -7.72791 -7.72792 l -3.36938,-13.75 c -4.84265,-19.76222 -5.00169,-20.25 -6.60264,-20.25 -1.21369,0 -1.453,2.79997 -1.453,17 v 17 h -7.51217 -7.51217 z m 21.79395,-6.76701 c 2.38859,-1.278339 4.30046,-8.14131 3.43114,-12.316673 -1.143,-5.489808 -3.12636,-7.666321 -6.98597,-7.666321 H 346 v 10.5 10.5 h 2.56574 c 1.41116,0 3.42088,-0.457653 4.46604,-1.017006 z m 69.69348,6.76702 0.22526,-37.250014 h 5.12114 5.12114 l 8.1536,19.469323 8.1536,19.469321 0.27114,-19.719321 0.27114,-19.719323 H 456.02114 462 v 37.552264 37.55226 l -5.22874,-0.30226 -5.22873,-0.30226 -7.52127,-19.16853 C 439.88457,108.90646 436.1625,99.943964 435.75,99.532486 435.3375,99.121007 435,107.85934 435,118.95101 v 20.16667 l -6.25,1e-5 -6.25,1e-5 z"
           id="path905" />
        <rect
           class="cls-1"
           x="543"
           y="60"
           width="10"
           height="180"
           id="rect892" />
        <g
           aria-label="CLIMATECAREERPORTAL"
           id="CLIMATE_CAREER_PORTAL"
           style="font-size:62.50000000000000000px;font-family:Oswald;fill:#000000;fill-opacity:1"
           class="cls-2">
          <path
             d="m 621.19873,95.704102 q -1.67847,0.732421 -3.05176,1.373291 -1.34277,0.640869 -3.54004,1.342773 -1.86157,0.579834 -4.05883,0.976563 -2.16675,0.427246 -4.79126,0.427246 -4.94385,0 -9.00269,-1.373291 -4.02832,-1.403809 -7.01904,-4.364014 -2.92969,-2.89917 -4.57764,-7.354736 -1.64795,-4.486084 -1.64795,-10.406495 0,-5.615234 1.58692,-10.040283 1.58691,-4.425049 4.57763,-7.476806 2.89917,-2.960205 6.98853,-4.516602 4.11987,-1.556396 9.12475,-1.556396 3.66211,0 7.2937,0.885009 3.66211,0.88501 8.11768,3.112793 v 7.171631 h -0.45776 q -3.75367,-3.14331 -7.44629,-4.577637 -3.69263,-1.434326 -7.90406,-1.434326 -3.44848,0 -6.22558,1.129151 -2.74658,1.098632 -4.91333,3.448486 -2.10571,2.288818 -3.2959,5.79834 -1.15967,3.479004 -1.15967,8.05664 0,4.79126 1.28174,8.239747 1.31226,3.448486 3.35693,5.615234 2.13623,2.258301 4.97437,3.356934 2.86865,1.068115 6.04248,1.068115 4.36401,0 8.17871,-1.495362 3.8147,-1.495361 7.14111,-4.486084 h 0.42725 z"
             style="font-size:62.50000000000000000px;font-family:Oswald;fill:#000000;fill-opacity:1"
             id="path907" />
          <path
             d="M 658.55225,99 H 629.80469 V 53.559326 h 6.04248 v 40.06958 h 22.70508 z"
             style="font-size:62.50000000000000000px;font-family:Oswald;fill:#000000;fill-opacity:1"
             id="path909" />
          <path
             d="m 680.61646,99 h -17.94434 v -4.638672 h 5.95093 v -36.16333 h -5.95093 v -4.638672 h 17.94434 v 4.638672 h -5.95093 v 36.16333 h 5.95093 z"
             style="font-size:62.50000000000000000px;font-family:Oswald;fill:#000000;fill-opacity:1"
             id="path911" />
          <path
             d="m 731.42822,99 h -6.04248 V 59.845947 l -12.63428,26.641846 h -3.60107 L 696.60767,59.845947 V 99 h -5.64576 V 53.559326 h 8.23975 l 12.11548,25.299072 11.71875,-25.299072 h 8.39233 z"
             style="font-size:62.50000000000000000px;font-family:Oswald;fill:#000000;fill-opacity:1"
             id="path913" />
          <path
             d="m 779.52393,99 h -6.43921 L 768.62915,86.335205 H 748.97583 L 744.52026,99 h -6.13403 l 16.54053,-45.440674 h 8.05664 z m -12.75635,-17.852783 -7.96509,-22.30835 -7.99561,22.30835 z"
             style="font-size:62.50000000000000000px;font-family:Oswald;fill:#000000;fill-opacity:1"
             id="path915" />
          <path
             d="M 818.83057,58.93042 H 802.59521 V 99 h -6.04248 V 58.93042 h -16.23535 v -5.371094 h 38.51319 z"
             style="font-size:62.50000000000000000px;font-family:Oswald;fill:#000000;fill-opacity:1"
             id="path917" />
          <path
             d="M 854.93286,99 H 824.99512 V 53.559326 h 29.93774 V 58.93042 H 831.0376 v 12.451172 h 23.89526 v 5.371094 H 831.0376 v 16.87622 h 23.89526 z"
             style="font-size:62.50000000000000000px;font-family:Oswald;fill:#000000;fill-opacity:1"
             id="path919" />
          <path
             d="m 621.19873,170.7041 q -1.67847,0.73242 -3.05176,1.37329 -1.34277,0.64087 -3.54004,1.34278 -1.86157,0.57983 -4.05883,0.97656 -2.16675,0.42724 -4.79126,0.42724 -4.94385,0 -9.00269,-1.37329 -4.02832,-1.40381 -7.01904,-4.36401 -2.92969,-2.89917 -4.57764,-7.35474 -1.64795,-4.48608 -1.64795,-10.40649 0,-5.61523 1.58692,-10.04028 1.58691,-4.42505 4.57763,-7.47681 2.89917,-2.96021 6.98853,-4.5166 4.11987,-1.5564 9.12475,-1.5564 3.66211,0 7.2937,0.88501 3.66211,0.88501 8.11768,3.11279 v 7.17164 h -0.45776 q -3.75367,-3.14332 -7.44629,-4.57764 -3.69263,-1.43433 -7.90406,-1.43433 -3.44848,0 -6.22558,1.12915 -2.74658,1.09864 -4.91333,3.44849 -2.10571,2.28882 -3.2959,5.79834 -1.15967,3.479 -1.15967,8.05664 0,4.79126 1.28174,8.23975 1.31226,3.44848 3.35693,5.61523 2.13623,2.2583 4.97437,3.35693 2.86865,1.06812 6.04248,1.06812 4.36401,0 8.17871,-1.49536 3.8147,-1.49536 7.14111,-4.48609 h 0.42725 z"
             id="path921"
             style="fill:#000000;fill-opacity:1" />
          <path
             d="m 665.63232,174 h -6.4392 l -4.45557,-12.66479 H 635.08423 L 630.62866,174 h -6.13403 l 16.54053,-45.44067 h 8.05664 z m -12.75634,-17.85278 -7.96509,-22.30835 -7.99561,22.30835 z"
             id="path923"
             style="fill:#000000;fill-opacity:1" />
          <path
             d="m 710.12695,174 h -7.84301 l -15.19776,-18.06641 h -8.5144 V 174 h -6.04248 v -45.44067 h 12.72583 q 4.11987,0 6.86645,0.54931 2.74658,0.5188 4.94385,1.89209 2.47192,1.5564 3.84521,3.93677 1.40381,2.34985 1.40381,5.98145 0,4.91333 -2.47192,8.23974 -2.47192,3.2959 -6.80542,4.97437 z m -14.12964,-32.65381 q 0,-1.95312 -0.7019,-3.44848 -0.67139,-1.52588 -2.2583,-2.56348 -1.31226,-0.88501 -3.11279,-1.2207 -1.80054,-0.36622 -4.24195,-0.36622 h -7.11059 v 17.15088 h 6.10351 q 2.86866,0 5.00489,-0.48828 2.13623,-0.5188 3.63159,-1.89209 1.37329,-1.28174 2.01416,-2.92969 0.67138,-1.67846 0.67138,-4.24194 z"
             id="path925"
             style="fill:#000000;fill-opacity:1" />
          <path
             d="m 745.92407,174 h -29.93774 v -45.44067 h 29.93774 v 5.37109 h -23.89526 v 12.45117 h 23.89526 v 5.3711 h -23.89526 v 16.87622 h 23.89526 z"
             id="path927"
             style="fill:#000000;fill-opacity:1" />
          <path
             d="m 785.47485,174 h -29.93774 v -45.44067 h 29.93774 v 5.37109 h -23.89526 v 12.45117 h 23.89526 v 5.3711 h -23.89526 v 16.87622 h 23.89526 z"
             id="path929"
             style="fill:#000000;fill-opacity:1" />
          <path
             d="m 832.68555,174 h -7.84302 l -15.19775,-18.06641 h -8.51441 V 174 h -6.04248 v -45.44067 h 12.72583 q 4.11987,0 6.86646,0.54931 2.74658,0.5188 4.94384,1.89209 2.47193,1.5564 3.84522,3.93677 1.40381,2.34985 1.40381,5.98145 0,4.91333 -2.47193,8.23974 -2.47192,3.2959 -6.80542,4.97437 z m -14.12964,-32.65381 q 0,-1.95312 -0.70191,-3.44848 -0.67138,-1.52588 -2.2583,-2.56348 -1.31225,-0.88501 -3.11279,-1.2207 -1.80054,-0.36622 -4.24194,-0.36622 h -7.1106 v 17.15088 h 6.10352 q 2.86865,0 5.00488,-0.48828 2.13623,-0.5188 3.63159,-1.89209 1.37329,-1.28174 2.01416,-2.92969 0.67139,-1.67846 0.67139,-4.24194 z"
             id="path931"
             style="fill:#000000;fill-opacity:1" />
          <path
             d="m 615.82764,217.29224 q 0,3.02124 -1.06812,5.61523 -1.0376,2.56348 -2.92969,4.45557 -2.34985,2.34985 -5.5542,3.54004 -3.20434,1.15966 -8.08715,1.15966 H 592.146 V 249 h -6.04248 v -45.44067 h 12.3291 q 4.08935,0 6.92749,0.7019 2.83813,0.67139 5.0354,2.13623 2.59399,1.7395 3.9978,4.3335 1.43433,2.59399 1.43433,6.56128 z m -6.28662,0.15258 q 0,-2.34985 -0.82398,-4.08935 -0.82397,-1.7395 -2.50244,-2.83814 -1.46484,-0.94604 -3.35693,-1.34277 -1.86158,-0.42725 -4.73023,-0.42725 H 592.146 v 18.15796 h 5.09643 q 3.66211,0 5.95093,-0.64087 2.28882,-0.67138 3.72314,-2.10571 1.43433,-1.46484 2.01416,-3.08227 0.61036,-1.61744 0.61036,-3.6316 z"
             id="path933"
             style="fill:#000000;fill-opacity:1" />
          <path
             d="m 657.69775,208.77783 q 2.7771,3.05176 4.24195,7.47681 1.49536,4.42505 1.49536,10.04028 0,5.61524 -1.52588,10.0708 -1.49536,4.42505 -4.21143,7.38526 -2.80761,3.08227 -6.65283,4.63867 -3.8147,1.55639 -8.72803,1.55639 -4.79126,0 -8.72802,-1.58691 -3.90625,-1.58691 -6.65283,-4.60815 -2.74659,-3.02124 -4.24195,-7.41577 -1.46484,-4.39454 -1.46484,-10.04029 0,-5.5542 1.46484,-9.94873 1.46485,-4.42505 4.27246,-7.56836 2.68555,-2.99072 6.65283,-4.57763 3.99781,-1.58692 8.69751,-1.58692 4.88282,0 8.75855,1.61743 3.90625,1.58692 6.62231,4.54712 z m -0.54931,17.51709 q 0,-8.8501 -3.96729,-13.64136 -3.96728,-4.82177 -10.83374,-4.82177 -6.92749,0 -10.89477,4.82177 -3.93677,4.79126 -3.93677,13.64136 0,8.94165 4.02832,13.70239 4.02832,4.73023 10.80322,4.73023 6.7749,0 10.77271,-4.73023 4.02832,-4.76074 4.02832,-13.70239 z"
             id="path935"
             style="fill:#000000;fill-opacity:1" />
          <path
             d="m 710.61523,249 h -7.84301 l -15.19776,-18.06641 h -8.5144 V 249 h -6.04248 v -45.44067 h 12.72583 q 4.11987,0 6.86645,0.54931 2.74659,0.5188 4.94385,1.89209 2.47192,1.5564 3.84522,3.93677 1.4038,2.34985 1.4038,5.98145 0,4.91333 -2.47192,8.23974 -2.47192,3.2959 -6.80542,4.97437 z M 696.4856,216.34619 q 0,-1.95312 -0.70191,-3.44848 -0.67139,-1.52588 -2.2583,-2.56348 -1.31226,-0.88501 -3.11279,-1.2207 -1.80054,-0.36622 -4.24195,-0.36622 h -7.11059 v 17.15088 h 6.10351 q 2.86866,0 5.00489,-0.48828 2.13623,-0.5188 3.63159,-1.89209 1.37329,-1.28174 2.01416,-2.92969 0.67139,-1.67846 0.67139,-4.24194 z"
             id="path937"
             style="fill:#000000;fill-opacity:1" />
          <path
             d="M 748.88428,208.93042 H 732.64893 V 249 h -6.04248 v -40.06958 h -16.23536 v -5.37109 h 38.51319 z"
             id="path939"
             style="fill:#000000;fill-opacity:1" />
          <path
             d="m 790.87646,249 h -6.4392 l -4.45557,-12.66479 H 760.32837 L 755.8728,249 h -6.13403 l 16.54053,-45.44067 h 8.05664 z m -12.75634,-17.85278 -7.96509,-22.30835 -7.99561,22.30835 z"
             id="path941"
             style="fill:#000000;fill-opacity:1" />
          <path
             d="m 826.521,249 h -28.74756 v -45.44067 h 6.04248 v 40.06958 H 826.521 Z"
             id="path943"
             style="fill:#000000;fill-opacity:1" />
        </g>
        <path
           style="fill:#4cb4c0;fill-opacity:1"
           d="m 167.71868,263.26286 c 0.9625,-0.25152 2.5375,-0.25152 3.5,0 0.9625,0.25153 0.175,0.45733 -1.75,0.45733 -1.925,0 -2.7125,-0.2058 -1.75,-0.45733 z m -17.17105,-8.894 c 0.048,-1.16495 0.28494,-1.4019 0.60416,-0.60417 0.28888,0.72187 0.25335,1.58437 -0.079,1.91667 -0.33229,0.33229 -0.56864,-0.25834 -0.52522,-1.3125 z m 315.37303,-61.41667 c 0,-20.075 0.13345,-28.2875 0.29656,-18.25 0.16311,10.0375 0.16311,26.4625 0,36.5 -0.16311,10.0375 -0.29656,1.825 -0.29656,-18.25 z m -140.08203,16 c 0,-5.775 0.16528,-8.1375 0.36728,-5.25 0.202,2.8875 0.202,7.6125 0,10.5 -0.202,2.8875 -0.36728,0.525 -0.36728,-5.25 z m -65.29101,7.41667 c 0.048,-1.16495 0.28494,-1.4019 0.60416,-0.60417 0.28887,0.72187 0.25335,1.58437 -0.0789,1.91667 -0.3323,0.33229 -0.56864,-0.25834 -0.52522,-1.3125 z m -97.07894,-5.51732 c -8.94537,-0.82662 -14.2353,-2.43108 -23,-6.976 -27.59259,-14.30808 -40.797985,-46.30448 -31.54109,-76.42335 1.94439,-6.32638 5.59161,-12.72748 7.54109,-13.23508 0.98279,-0.2559 0.83069,0.1483 -0.44113,1.17226 -1.92151,1.54702 -1.92151,1.57842 0,3.1058 1.91028,1.51846 10.45573,1.45677 17.49276,-0.12628 2.22891,-0.50141 2.95614,0.0767 5.75,4.57109 2.52668,4.06458 3.19837,6.23565 3.19837,10.33797 0,4.58911 0.55226,5.9709 4.75,11.88477 2.6125,3.68055 5.36064,6.71386 6.10699,6.74069 0.80317,0.0289 1.12207,-0.5634 0.78138,-1.45122 -0.99212,-2.58543 0.24063,-1.63467 1.80638,1.39317 1.18234,2.28638 2.60339,3.15536 6.77568,4.14333 2.90377,0.6876 6.69846,2.48364 8.43267,3.9912 1.7342,1.50757 3.73485,2.93495 4.44588,3.17196 0.9834,0.3278 0.7854,1.45647 -0.82732,4.71606 -2.10911,4.26289 -2.11004,4.30149 -0.17924,7.43471 1.06748,1.73226 2.8334,6.00954 3.92427,9.50505 1.87787,6.01733 1.89911,6.68076 0.39921,12.46907 -0.8713,3.36247 -1.42546,7.77797 -1.23147,9.81223 0.34948,3.66465 0.31579,3.7017 -3.66585,4.03093 -2.21022,0.18276 -6.94358,0.062 -10.51858,-0.26836 z m 23,-3.09408 c 0,-0.77636 2.66118,-3.28827 5.91374,-5.58204 4.26078,-3.00478 6.24118,-5.16262 7.08519,-7.71999 0.8346,-2.52885 2.26709,-4.10847 4.98174,-5.49338 2.7932,-1.42499 4.77244,-3.66436 7.4148,-8.38935 1.98249,-3.54501 3.60452,-6.92572 3.60452,-7.51267 0,-0.58696 -1.86392,-2.01809 -4.14204,-3.1803 -2.27812,-1.16221 -6.21561,-4.02068 -8.74999,-6.35215 -3.82219,-3.51618 -5.89523,-4.53535 -12.15692,-5.97672 -4.15193,-0.95573 -8.72877,-1.44158 -10.17076,-1.07966 -3.43837,0.86298 -8.78028,-2.9134 -8.78028,-6.20707 0,-1.62184 -0.57937,-2.31194 -1.94098,-2.31194 -1.06754,0 -2.2191,0.45 -2.55902,1 -1.04945,1.69805 -2.5,1.10539 -2.5,-1.02144 0,-2.7346 4.03944,-4.563 6.80777,-3.08144 3.15675,1.68945 6.19123,1.37266 6.19869,-0.64712 0.0106,-2.86878 7.85907,-11.14817 13.07215,-13.78984 2.6702,-1.35309 6.45899,-2.46016 8.41953,-2.46016 5.47722,0 5.55346,-2.34936 0.254,-7.82702 -2.48652,-2.57014 -5.01049,-5.63257 -5.60881,-6.80541 -1.02253,-2.00437 -2.55176,-2.57295 -10.79243,-4.01265 -2.87709,-0.50265 -3.20787,-0.28261 -3.82946,2.54745 -0.69923,3.1836 -1.39083,3.50731 -5.27144,2.46734 -2.73578,-0.73316 -3.11028,-4.36971 -0.45,-4.36971 2.20426,0 4.19472,-1.86518 4.21531,-3.95 0.0307,-3.1099 1.56121,-4.34701 3.85752,-3.11806 1.16994,0.62613 2.12717,1.78176 2.12717,2.56806 0,2.8294 5.89786,4.48217 8.99896,2.5218 1.22828,-0.77645 0.60712,-1.85303 -3.43971,-5.96164 -5.27453,-5.355067 -5.45054,-6.634477 -0.7713,-5.606737 3.71183,0.81525 7.63037,4.980367 9.14323,9.718567 1.09734,3.43682 8.51389,10.82801 10.86513,10.82801 0.52786,0 1.57712,-0.92711 2.33171,-2.06025 1.12426,-1.68826 2.54556,-2.09451 7.87197,-2.25 l 6.5,-0.18975 3.21319,6.5 c 4.19487,8.48586 6.28681,17.89853 6.28681,28.28744 0,24.59059 -13.59026,46.49716 -35.49999,57.2236 -8.67215,4.24566 -12.5,5.25444 -12.5,3.29423 z M 325.8339,175.45219 c 0.003,-5.5 0.17053,-7.62242 0.37317,-4.71648 0.20265,2.90594 0.20052,7.40594 -0.005,10 -0.20525,2.59406 -0.37104,0.21648 -0.36844,-5.28352 z m 86.71372,0.91667 c 0.048,-1.16495 0.28494,-1.4019 0.60416,-0.60417 0.28887,0.72187 0.25335,1.58437 -0.0789,1.91667 -0.33229,0.33229 -0.56864,-0.25834 -0.52522,-1.3125 z M 274.7377,167.2592 c 0.97297,-0.25354 2.32297,-0.23687 3,0.0371 0.67703,0.27393 -0.11903,0.48137 -1.76903,0.46099 -1.65,-0.0204 -2.20394,-0.2445 -1.23097,-0.49804 z m 130,-1 c 0.97297,-0.25354 2.32297,-0.23687 3,0.0371 0.67703,0.27393 -0.11903,0.48137 -1.76903,0.46099 -1.65,-0.0204 -2.20394,-0.2445 -1.23097,-0.49804 z m -78.81648,-63.80701 c 3.1e-4,-20.350007 0.13365,-28.533077 0.29631,-18.184607 0.16266,10.34848 0.16241,26.998487 -5.6e-4,37.000007 -0.16297,10.00153 -0.29606,1.5346 -0.29575,-18.8154 z m 76.96253,0.5 c 0,-10.175007 0.1485,-14.337507 0.32999,-9.250007 0.18149,5.0875 0.18149,13.412507 0,18.500007 -0.18149,5.0875 -0.32999,0.925 -0.32999,-9.25 z m 91.58492,8.5 v -5.5 h -5 -5 v -5.5 -5.500007 h 5 5 v -5 -5 h 5.5 5.5 v 5 5 h 5.5 5.5 v 5.447747 5.44774 l -5.25,0.30226 -5.25,0.30226 -0.30226,5.25 -0.30226,5.25 h -5.44774 -5.44774 z M 126.96868,99.483535 c 6.67701,-6.250112 18.5804,-12.645152 27.9601,-15.021412 8.51637,-2.15755 22.54918,-1.93726 32.0937,0.50382 9.01897,2.30666 11.73872,3.99897 5.25177,3.26779 -3.87822,-0.43713 -4.75596,-0.13031 -7.82274,2.73449 -3.19495,2.98453 -4.05169,3.25311 -11.4078,3.57627 -7.20872,0.31668 -8.15223,0.59873 -10.07674,3.0123 -2.02022,2.533597 -2.4359,2.632147 -8.56081,2.029432 -3.54061,-0.348412 -6.88748,-0.666192 -7.43748,-0.706172 -0.55,-0.04 -3.025,0.608882 -5.5,1.441917 -2.475,0.83304 -7.33236,2.01237 -10.79413,2.62073 -3.46177,0.60837 -7.06177,1.34262 -8,1.63168 -0.93823,0.28905 0.99413,-2.00182 4.29413,-5.090845 z m 34.59531,-6.090262 c 2.18254,-1.34888 -0.99331,-3.84654 -5.01944,-3.94755 -4.827,-0.1211 -8.68741,2.82758 -6.03611,4.61055 1.42077,0.95544 9.19081,0.48948 11.05555,-0.663 z m 18.58598,-2.69109 c 3.74986,-2.55282 3.9204,-3.00575 1.79573,-4.76907 -1.23975,-1.0289 -2.21608,-0.94802 -5.25,0.43492 -5.21868,2.37882 -7.53897,4.2704 -6.76814,5.51761 1.12772,1.82469 6.76183,1.17242 10.22241,-1.18346 z m 176.39765,-4.33333 c 0.048,-1.16495 0.28494,-1.4019 0.60416,-0.60417 0.28887,0.72187 0.25335,1.58438 -0.0789,1.91667 -0.33229,0.33229 -0.56864,-0.25834 -0.52522,-1.3125 z"
           id="path986"
           sodipodi:nodetypes="sssscssccsssssssssssssssssssssssssssssssssssssssssssssssssssssssssssssssssssssscsssscscccssssssssssssssssssssssscccccccccccccccccccccccccsssssssssssssssssssssssssss" />
      </g>
    </g>
  </g>
</svg>
