<?xml version="1.0" encoding="UTF-8" standalone="no"?>
<svg
   xmlns:dc="http://purl.org/dc/elements/1.1/"
   xmlns:cc="http://creativecommons.org/ns#"
   xmlns:rdf="http://www.w3.org/1999/02/22-rdf-syntax-ns#"
   xmlns:svg="http://www.w3.org/2000/svg"
   xmlns="http://www.w3.org/2000/svg"
   xmlns:sodipodi="http://sodipodi.sourceforge.net/DTD/sodipodi-0.dtd"
   xmlns:inkscape="http://www.inkscape.org/namespaces/inkscape"
   width="127mm"
   height="127mm"
   viewBox="0 0 126.99999 127"
   version="1.1"
   id="svg8"
   inkscape:version="1.0.2 (e86c8708, 2021-01-15)"
   sodipodi:docname="missing.svg">
  <defs
     id="defs2" />
  <sodipodi:namedview
     id="base"
     pagecolor="#ffffff"
     bordercolor="#666666"
     borderopacity="1.0"
     inkscape:pageopacity="0.0"
     inkscape:pageshadow="2"
     inkscape:zoom="0.63353649"
     inkscape:cx="170.29427"
     inkscape:cy="284.44787"
     inkscape:document-units="mm"
     inkscape:current-layer="g26"
     inkscape:document-rotation="0"
     showgrid="false"
     fit-margin-top="0"
     fit-margin-left="0"
     fit-margin-right="0"
     fit-margin-bottom="0"
     lock-margins="true"
     inkscape:window-width="1252"
     inkscape:window-height="1027"
     inkscape:window-x="0"
     inkscape:window-y="25"
     inkscape:window-maximized="0" />
  <metadata
     id="metadata5">
    <rdf:RDF>
      <cc:Work
         rdf:about="">
        <dc:format>image/svg+xml</dc:format>
        <dc:type
           rdf:resource="http://purl.org/dc/dcmitype/StillImage" />
        <dc:title></dc:title>
      </cc:Work>
    </rdf:RDF>
  </metadata>
  <g
     inkscape:label="Layer 1"
     inkscape:groupmode="layer"
     id="layer1"
     transform="translate(-52.062641,-41.86768)">
    <g
       id="g26"
       transform="matrix(0.26458333,0,0,0.26458333,14.665477,74.385715)">
      <g
         id="g35"
         transform="translate(125.34362,-138.90281)">
        <path
           d="m 448,120 a 8,8 0 0 0 -2.343,-5.657 l -96,-96 A 8,8 0 0 0 344,16 H 104 A 40.045,40.045 0 0 0 64,56 v 400 a 40.045,40.045 0 0 0 40,40 h 304 a 40.045,40.045 0 0 0 40,-40 z M 352,43.313 420.687,112 H 376 A 24.027,24.027 0 0 1 352,88 Z M 432,456 a 24.028,24.028 0 0 1 -24,24 H 104 A 24.028,24.028 0 0 1 80,456 V 56 a 24.028,24.028 0 0 1 24,-24 h 232 v 56 a 40.045,40.045 0 0 0 40,40 h 56 z"
           id="path12" />
        <path
           d="m 256,160 a 64.072,64.072 0 0 0 -64,64 8,8 0 0 0 16,0 48,48 0 1 1 48,48 8,8 0 0 0 -8,8 v 32 a 8,8 0 0 0 16,0 V 287.5 A 64,64 0 0 0 256,160 Z"
           id="path14" />
        <circle
           style="fill:#000000;fill-rule:evenodd"
           id="path30"
           cx="256.41113"
           cy="352.54977"
           r="12.874117" />
      </g>
    </g>
  </g>
</svg>
